<svg width="200" height="200" viewBox="0 0 200 200" fill="none" xmlns="http://www.w3.org/2000/svg">
<rect x="32" y="40.465" width="18" height="162.011" rx="9" transform="rotate(-48.4224 32 40.465)" fill="white"/>
<path fill-rule="evenodd" clip-rule="evenodd" d="M33.7515 59.7774C27.6318 63.8011 21.9026 68.3655 16.6326 73.4018C13.2188 76.6964 13.1113 82.1071 16.3906 85.5357C19.67 88.9643 25.1266 89.0714 28.5403 85.7768H28.5672C34.1872 80.4036 40.4145 75.6576 47.1367 71.652L33.7515 59.7774ZM67.6872 89.8832C60.7825 93.048 54.4271 97.1946 48.8076 102.143C45.2326 105.277 44.91 110.688 48.055 114.25C51.1999 117.812 56.6296 118.134 60.2046 115C66.4877 109.468 73.9285 105.231 82.1261 102.693L67.6872 89.8832ZM106.616 100.356L87.9423 83.7901C91.8768 83.176 95.9087 82.8571 100.013 82.8571C119.636 82.8571 137.591 90.1429 151.246 102.143C154.794 105.277 155.144 110.714 151.999 114.25C148.854 117.786 143.424 118.134 139.849 115C130.761 107.018 119.281 101.731 106.616 100.356ZM64.8207 63.278L50.5037 50.5767C65.6054 43.7833 82.3659 40 100.013 40C132.377 40 161.756 52.7232 183.367 73.4286C186.781 76.6964 186.889 82.1339 183.609 85.5357C180.33 88.9375 174.9 89.0446 171.46 85.7768C152.913 68.0446 127.753 57.1429 100.013 57.1429C87.6511 57.1429 75.8012 59.308 64.8207 63.278ZM100.013 125.714C109.502 125.714 117.216 133.402 117.216 142.857C117.216 152.312 109.502 160 100.013 160C90.5249 160 82.8104 152.312 82.8104 142.857C82.8104 133.402 90.5249 125.714 100.013 125.714Z" fill="white"/>
</svg>
