<svg width="200" height="200" viewBox="0 0 200 200" fill="none" xmlns="http://www.w3.org/2000/svg">
<path d="M28.5672 85.7768C47.1142 68.0446 72.2736 57.1429 100.013 57.1429C127.753 57.1429 152.913 68.0446 171.46 85.7768C174.9 89.0446 180.33 88.9375 183.609 85.5357C186.889 82.1339 186.781 76.6964 183.367 73.4286C161.756 52.7232 132.377 40 100.013 40C67.6503 40 38.2707 52.7232 16.6326 73.4018C13.2188 76.6964 13.1113 82.1071 16.3906 85.5357C19.67 88.9643 25.1266 89.0714 28.5403 85.7768H28.5672ZM100.013 100C115.281 100 129.205 105.652 139.849 115C143.424 118.134 148.854 117.786 151.999 114.25C155.144 110.714 154.794 105.277 151.246 102.143C137.591 90.1429 119.636 82.8571 100.013 82.8571C80.3912 82.8571 62.4356 90.1429 48.8076 102.143C45.2326 105.277 44.91 110.688 48.055 114.25C51.1999 117.813 56.6296 118.134 60.2046 115C70.8221 105.652 84.7458 100 100.04 100H100.013ZM117.216 142.857C117.216 133.402 109.502 125.714 100.013 125.714C90.5249 125.714 82.8104 133.402 82.8104 142.857C82.8104 152.312 90.5249 160 100.013 160C109.502 160 117.216 152.312 117.216 142.857Z" fill="white"/>
</svg>
